<svg xmlns="http://www.w3.org/2000/svg" version="1.1" xmlns:xlink="http://www.w3.org/1999/xlink" viewBox="0 0 200 200"><rect width="200" height="200" fill="url('#gradient')"></rect><defs><linearGradient id="gradient" gradientTransform="rotate(45 0.5 0.5)"><stop offset="0%" stop-color="#dee90b"></stop><stop offset="100%" stop-color="#d9e241"></stop></linearGradient></defs><g><g fill="#1b3855" transform="matrix(7.2595510043324145,0,0,7.2595510043324145,7.441703495851598,151.6147834765437)" stroke="#0e5278" stroke-width="0.2"><path d="M12.24-14.22L12.24-11.57L7.97-11.57L7.97 0L4.54 0L4.54-11.57L0.35-11.57L0.35-14.22L12.24-14.22ZM21.47 0L18.96-5.02L17.11-5.02L17.11 0L13.68 0L13.68-14.22L19.28-14.22Q21.81-14.22 23.23-13.10Q24.66-11.97 24.66-9.92L24.66-9.92Q24.66-8.44 24.06-7.46Q23.46-6.48 22.18-5.88L22.18-5.88L25.15-0.15L25.15 0L21.47 0ZM17.11-11.57L17.11-7.67L19.28-7.67Q20.25-7.67 20.75-8.18Q21.24-8.69 21.24-9.61Q21.24-10.53 20.74-11.05Q20.24-11.57 19.28-11.57L19.28-11.57L17.11-11.57Z"></path></g></g></svg>